PathFileType	4	(X/Y/Z)	C:/Users/opensim2020/Desktop/walking_exp_matlab/subject06_walking23_straight_03.trc																																																																																																																																					
DataRate	CameraRate	NumFrames	NumMarkers	Units	OrigDataRate	OrigDataStartFrame	OrigNumFrames																																																																																																																																	
100	100	4	45	mm	100	1822	94																																																																																																																																	
Frame#	Time	LFHD			RFHD			LBHD			RBHD			C7			T10			CLAV			STRN			RBAK			LSHO			LUPA			LELB			LFRM			LWRA			LWRB			LFIN			RSHO			RUPA			RELB			RFRM			RWRA			RWRB			RFIN			LASI			RASI			LPSI			RPSI			LTHI			LKNE			LTIB			LANK			LHEE			LTOE			RTHI			RKNE			RTIB			RANK			RHEE			RTOE			*39			*40			*41			*42			*43			*44		
		X1	Y1	Z1	X2	Y2	Z2	X3	Y3	Z3	X4	Y4	Z4	X5	Y5	Z5	X6	Y6	Z6	X7	Y7	Z7	X8	Y8	Z8	X9	Y9	Z9	X10	Y10	Z10	X11	Y11	Z11	X12	Y12	Z12	X13	Y13	Z13	X14	Y14	Z14	X15	Y15	Z15	X16	Y16	Z16	X17	Y17	Z17	X18	Y18	Z18	X19	Y19	Z19	X20	Y20	Z20	X21	Y21	Z21	X22	Y22	Z22	X23	Y23	Z23	X24	Y24	Z24	X25	Y25	Z25	X26	Y26	Z26	X27	Y27	Z27	X28	Y28	Z28	X29	Y29	Z29	X30	Y30	Z30	X31	Y31	Z31	X32	Y32	Z32	X33	Y33	Z33	X34	Y34	Z34	X35	Y35	Z35	X36	Y36	Z36	X37	Y37	Z37	X38	Y38	Z38	X39	Y39	Z39	X40	Y40	Z40	X41	Y41	Z41	X42	Y42	Z42	X43	Y43	Z43	X44	Y44	Z44	X45	Y45	Z45
																																																																																																																																								
83	0.82	488.36588	1659.28064	1334.45313	497.84836	1658.58789	1465.51611	357.00851	1602.96387	1348.22205	367.60281	1606.80737	1477.20508	364.39868	1451.27112	1406.92981	321.74957	1124.77026	1430.73608	475.31726	1375.17297	1413.41467	514.78668	1202.08411	1418.27502	286.56561	1288.34131	1492.86023	424.87408	1399.33057	1248.64111	394.16824	1199.89172	1180.35461	368.37256	1089.86194	1170.41663	373.10181	939.323	1149.02832	421.37726	818.42023	1189.44141	359.47311	820.75409	1154.49084	388.17346	734.16736	1155.70911	424.31686	1413.87366	1571.71057	374.99161	1225.54321	1670.40625	379.8927	1103.54932	1689.32031	406.67557	986.85242	1707.85901	480.14612	856.94403	1670.16052	431.59308	851.93396	1716.29395	477.33453	781.05933	1712.55518	502.78644	968.50806	1332.35449	492.05295	968.75635	1550.78613	342.94696	990.82922	1353.31104	342.19617	986.68677	1520.12476	470.65482	651.69763	1279.43066	495.32407	491.78949	1313.46802	454.04666	237.03828	1332.28076	438.90082	69.01685	1383.24609	395.46085	57.0899	1428.32202	580.41748	41.77988	1391.37781	488.47104	627.57806	1605.12122	526.95795	506.66965	1590.75732	347.74106	332.26758	1582.7627	197.7462	225.31805	1538.57092	155.65462	240.7771	1493.45007	256.84018	80.75813	1535.88599	391.33344	1700.51868	1397.70618	NaN	NaN	NaN	NaN	NaN	NaN	NaN	NaN	NaN	NaN	NaN	NaN	NaN	NaN	NaN
84	0.83	502.85553	1660.27502	1333.52686	512.31061	1659.46729	1464.35718	371.40057	1604.23425	1347.4137	382.06564	1608.21155	1476.36621	378.63953	1452.44775	1406.0863	335.53308	1126.39978	1430.38708	489.42139	1376.35864	1412.78699	528.79956	1203.25635	1417.75769	300.68994	1289.99512	1492.00549	439.72049	1400.48206	1248.14502	412.4838	1200.40503	1179.84192	389.31033	1089.98718	1169.43604	397.95239	939.64343	1147.89014	449.70474	820.47821	1189.15271	387.67004	820.72565	1153.32886	419.44885	735.33551	1154.32361	438.24197	1415.3219	1570.93665	388.37924	1226.90686	1669.29553	391.53564	1105.00574	1687.71375	414.64929	987.48022	1707.2428	483.04034	854.07593	1671.32141	433.9754	851.60071	1717.2467	476.63757	778.63708	1714.5249	515.19275	969.57495	1331.35779	506.4086	970.72852	1549.88025	355.48349	992.10669	1353.75305	356.79578	988.34589	1520.55115	479.21692	652.02393	1279.45898	500.76764	491.37582	1312.91016	456.28201	237.10057	1331.86499	439.34323	69.26737	1383.3186	395.74387	57.79281	1428.25977	580.7868	41.25354	1390.71924	509.78543	630.98859	1604.14685	551.17535	511.30212	1588.7572	376.67889	331.74167	1582.59741	230.51936	218.27885	1540.30408	186.60378	231.23251	1495.58679	297.98862	78.39833	1537.64856	405.90317	1701.75452	1396.80066	NaN	NaN	NaN	NaN	NaN	NaN	NaN	NaN	NaN	NaN	NaN	NaN	NaN	NaN	NaN
85	0.84	517.41455	1661.01282	1332.56824	527.80225	1660.79407	1464.34229	385.75253	1605.36707	1346.60352	396.53473	1609.40515	1475.55286	392.73404	1453.42273	1405.32312	349.35504	1127.73438	1430.08826	503.48709	1377.31653	1412.21387	542.81671	1204.22168	1417.17822	314.86288	1291.36438	1491.30005	454.20245	1401.39771	1247.69275	430.67319	1200.88623	1179.13342	409.22287	1090.05359	1168.01477	422.71445	940.06335	1146.83911	477.72083	822.52997	1188.58606	416.05493	820.7807	1152.29321	451.11166	736.71747	1152.95654	452.2045	1416.56689	1570.17371	401.51343	1228.24182	1668.30652	402.85071	1106.29712	1686.36682	422.22311	988.1925	1706.73682	485.22513	851.20331	1672.36292	436.37326	851.77716	1718.43677	476.45966	776.98883	1716.95361	527.54614	970.24463	1330.22461	520.90155	972.45074	1548.89331	368.23502	993.14532	1354.38232	371.41229	989.77197	1521.05493	487.75723	652.14453	1279.39771	505.71558	490.91806	1312.67212	458.03641	237.20892	1331.65942	439.91293	69.54958	1383.59644	396.06699	58.6611	1428.75635	581.42822	40.74949	1390.21033	530.72607	634.39789	1603.2771	574.74902	515.65515	1586.78113	405.63342	330.42923	1582.57288	263.9957	210.28552	1541.79834	218.69421	220.24089	1497.4563	340.44733	75.94652	1539.61829	420.57941	1702.82654	1395.85608	NaN	NaN	NaN	NaN	NaN	NaN	NaN	NaN	NaN	NaN	NaN	NaN	NaN	NaN	NaN
86	0.85	531.95648	1661.49451	1331.66968	541.52014	1660.82849	1462.40857	400.10104	1606.35535	1345.85107	410.97195	1610.43665	1474.72778	406.77466	1454.09253	1404.59351	362.99286	1128.79041	1429.8363	517.50891	1378.03357	1411.57532	556.7912	1204.93616	1416.51221	328.96729	1292.33411	1490.66858	468.42212	1402.05237	1247.21008	448.62833	1201.10461	1178.51038	429.3609	1089.97388	1166.80652	447.40479	940.36945	1145.77686	505.92963	824.75769	1188.16431	444.61484	821.04187	1151.31274	482.67563	738.48315	1151.85925	466.19586	1417.5083	1569.42859	414.23621	1229.44568	1667.37476	413.85031	1107.44934	1685.18884	429.60248	988.81879	1706.38782	488.18378	849.14825	1673.73804	439.05966	851.95087	1719.42432	475.63547	775.41864	1718.47131	539.91705	970.52905	1328.95215	535.49188	973.77393	1547.83643	380.96121	994.01746	1354.84534	385.9512	991.08704	1521.50989	496.14417	651.93811	1279.41223	511.41663	490.29922	1312.47046	459.62015	237.42488	1331.60486	440.57727	69.9222	1383.93689	396.76535	59.20476	1429.00806	581.95636	40.3461	1389.89709	551.20361	637.42114	1602.47803	597.48328	519.78711	1584.7998	434.78363	327.9873	1582.43909	298.28262	201.3075	1543.05103	251.70822	208.17889	1499.07898	383.26617	72.71545	1541.15991	435.33582	1703.59424	1395.00098	NaN	NaN	NaN	NaN	NaN	NaN	NaN	NaN	NaN	NaN	NaN	NaN	NaN	NaN	NaN
